<?xml version="1.0" encoding="utf-8"?>
<!-- Generator: Adobe Illustrator 24.0.1, SVG Export Plug-In . SVG Version: 6.00 Build 0)  -->
<svg version="1.1" id="Laag_1" xmlns="http://www.w3.org/2000/svg" xmlns:xlink="http://www.w3.org/1999/xlink" x="0px" y="0px"
	 viewBox="0 0 161.4 76.4" style="enable-background:new 0 0 161.4 76.4;" xml:space="preserve">
<style type="text/css">
	.st0{fill:#CE5258;}
	.st1{fill:#FFFFFF;}
	.st2{fill:#DA2740;}
	.st3{fill:#E30613;}
	.st4{display:none;stroke:#000000;stroke-miterlimit:10;}
	.st5{fill:#393133;}
</style>
<path class="st0" d="M-580.6,353.7L-580.6,353.7l-34.4,40.4c-0.8,0.9-2.2,0.9-3,0l-34.4-40.4l0,0c-3.3-3.6-5.3-8.4-5.4-13.7
	c-0.1-11.3,9-20.7,20.3-20.8c11.5-0.2,20.9,9.1,20.9,20.6c0-11.5,9.4-20.8,20.9-20.6c11.3,0.2,20.4,9.5,20.3,20.8
	C-575.3,345.3-577.3,350.1-580.6,353.7z"/>
<path class="st0" d="M-716.6,399.3L-716.6,399.3l-34.4,40.4c-0.8,0.9-2.2,0.9-3,0l-34.4-40.4l0,0c-3.3-3.6-5.3-8.4-5.4-13.7
	c-0.1-11.3,9-20.7,20.3-20.8c11.5-0.2,20.9,9.1,20.9,20.6c0-11.5,9.4-20.8,20.9-20.6c11.3,0.2,20.4,9.5,20.3,20.8
	C-711.2,390.9-713.3,395.7-716.6,399.3z"/>
<g>
	<g>
		<path class="st1" d="M-746.7,398.4c12.6-8.3,23.1-21.8,21.9-37.7c-0.6-7.3-3.5-14.8-9.3-19.6c-5.5-4.5-12.7-6.6-19.7-5.5
			c-6.9,1.1-12.6,5.9-15.6,12.1c-3.1,6.4-3.9,13.6-3.9,20.7c-0.1,17.6,3.1,35.6-1.3,53c-1.9,7.4-5,14.9-10.3,20.6
			c-4.7,5-11.8,9.2-18.8,7.2c-5.6-1.6-9-6.9-10.2-12.5c-1.4-6.2,0.2-12.4,3.6-17.7c3.6-5.5,9.1-9.6,15.4-11.5c6.7-2,13.9-1,20.2,1.8
			c15,6.8,23.8,21.2,32.4,34.5c4.5,6.9,9.1,14,15.1,19.7c5.6,5.3,12.5,9.6,20.4,10c7.4,0.3,14.4-3.5,19.2-9
			c5.4-6.3,7.9-14.1,9.1-22.2c0.6-4.3,1-8.6,1.3-12.9c0.1-1.3-1.2-2.5-2.5-2.5c-1.4,0-2.4,1.1-2.5,2.5c-0.6,8.3-1.1,17.1-4.7,24.8
			c-2.7,5.9-7.5,11.5-13.9,13.6c-7,2.2-14-0.6-19.5-4.8c-6.2-4.8-10.9-11.4-15.2-17.9c-9.1-13.6-17.3-28.4-31.6-37.3
			c-6.4-4-13.9-6.6-21.5-6.3c-7.2,0.3-13.9,3.1-19.4,7.7c-5.3,4.4-9.3,10.6-10.7,17.3c-1.3,6.4-0.4,13.3,3,18.9
			c3.5,5.9,9.8,9.7,16.7,9.3c7.7-0.4,14.7-5.2,19.4-11c10.7-13.3,12.7-31,12.4-47.5c-0.2-9.2-1-18.4-1-27.6c0-6.5,0.6-13.4,3.7-19.2
			c3-5.6,8.4-9,14.8-8.9c6.3,0.1,12.4,3.3,16,8.5c3.9,5.8,4.9,13.2,3.6,20c-1.5,7.1-5.5,13.4-10.6,18.5c-2.6,2.5-5.4,4.8-8.4,6.7
			C-751.9,395.8-749.4,400.2-746.7,398.4L-746.7,398.4z"/>
	</g>
</g>
<path class="st2" d="M-569.6-155.4L-569.6-155.4l-57.1,67.2c-1.3,1.5-3.7,1.5-5,0l-57.1-67.2l0,0c-5.5-6-8.9-14-9-22.8
	c-0.2-18.8,15-34.4,33.8-34.6c19.2-0.3,34.8,15.2,34.8,34.3c0-19.1,15.6-34.6,34.8-34.3c18.8,0.3,34,15.8,33.8,34.6
	C-560.7-169.4-564.1-161.4-569.6-155.4z"/>
<g>
	<g>
		<path class="st3" d="M-792.1,254.4c12.6-8.3,23.1-21.8,21.9-37.7c-0.6-7.3-3.5-14.8-9.3-19.6c-5.5-4.5-12.7-6.6-19.7-5.5
			c-6.9,1.1-12.6,5.9-15.6,12.1c-3.1,6.4-3.9,13.6-3.9,20.7c-0.1,17.6,3.1,35.6-1.3,53c-1.9,7.4-5,14.9-10.3,20.6
			c-4.7,5-11.8,9.2-18.8,7.2c-5.6-1.6-9-6.9-10.2-12.5c-1.4-6.2,0.2-12.4,3.6-17.7c3.6-5.5,9.1-9.6,15.4-11.5c6.7-2,13.9-1,20.2,1.8
			c15,6.8,23.8,21.2,32.4,34.5c4.5,6.9,9.1,14,15.1,19.7c5.6,5.3,12.5,9.6,20.4,10c7.4,0.3,14.4-3.5,19.2-9
			c5.4-6.3,7.9-14.1,9.1-22.2c0.6-4.3,1-8.6,1.3-12.9c0.1-1.3-1.2-2.5-2.5-2.5c-1.4,0-2.4,1.1-2.5,2.5c-0.6,8.3-1.1,17.1-4.7,24.8
			c-2.7,5.9-7.5,11.5-13.9,13.6c-7,2.2-14-0.6-19.5-4.8c-6.2-4.8-10.9-11.4-15.2-17.9c-9.1-13.6-17.3-28.4-31.6-37.3
			c-6.4-4-13.9-6.6-21.5-6.3c-7.2,0.3-13.9,3.1-19.4,7.7c-5.3,4.4-9.3,10.6-10.7,17.3c-1.3,6.4-0.4,13.3,3,18.9
			c3.5,5.9,9.8,9.7,16.7,9.3c7.7-0.4,14.7-5.2,19.4-11c10.7-13.3,12.7-31,12.4-47.5c-0.2-9.2-1-18.4-1-27.6c0-6.5,0.6-13.4,3.7-19.2
			c3-5.6,8.4-9,14.8-8.9c6.3,0.1,12.4,3.3,16,8.5c3.9,5.8,4.9,13.2,3.6,20c-1.5,7.1-5.5,13.4-10.6,18.5c-2.6,2.5-5.4,4.8-8.4,6.7
			C-797.3,251.9-794.8,256.2-792.1,254.4L-792.1,254.4z"/>
	</g>
</g>
<g>
	<g>
		<path class="st3" d="M-790.4-127.5c7.7,1.6,15.4,1.9,23.1,0.6c7.2-1.2,13.9-4.3,19.6-8.9c10.2-8.1,16-22.3,11.7-35.1
			c-2.2-6.6-6.4-12.3-12.3-16c-6.2-3.9-14.1-4.6-21.1-2.6c-13.7,4-23.2,15.9-32.4,26c-5.2,5.7-10.4,11.4-16.3,16.5
			c-0.7,0.6-1.5,1.3-2.3,1.9c-0.2,0.2-0.4,0.4-0.7,0.5c-0.2,0.2-0.4,0.3-0.7,0.5c1-0.7,1.1-0.9,0.5-0.4c-1.5,1.1-2.9,2.1-4.5,3.1
			c-3,2-6.2,3.7-9.6,5.1c0.6-0.3,1.2-0.5,1.8-0.8c-3.8,1.6-7.8,2.8-11.9,3.3c0.7-0.1,1.3-0.2,2-0.3c-2.9,0.4-5.9,0.4-8.8,0
			c0.7,0.1,1.3,0.2,2,0.3c-2.3-0.3-4.5-0.9-6.7-1.8c0.6,0.3,1.2,0.5,1.8,0.8c-0.9-0.4-1.8-0.9-2.7-1.4c-0.2-0.1-1.3-0.7-1.4-0.9
			c0,0,1.5,1.2,0.7,0.6c-0.2-0.2-0.4-0.4-0.6-0.5c-0.4-0.3-0.7-0.7-1.1-1.1c-0.1-0.2-0.3-0.3-0.4-0.5c-0.8-0.9,0.9,1.3,0.5,0.6
			c-0.6-0.9-1.1-1.8-1.6-2.8c0.3,0.6,0.5,1.2,0.8,1.8c-0.5-1.2-0.9-2.5-1.1-3.8c0.1,0.7,0.2,1.3,0.3,2c-0.2-1.5-0.2-3.1,0-4.6
			c-0.1,0.7-0.2,1.3-0.3,2c0.3-1.8,0.8-3.5,1.5-5.2c-0.3,0.6-0.5,1.2-0.8,1.8c0.6-1.4,1.3-2.7,2.2-4c0.2-0.3,0.4-0.6,0.6-0.9
			c0.8-1.1-1.3,1.5-0.2,0.3c0.5-0.6,1-1.1,1.5-1.7c0.5-0.5,1-1,1.6-1.4c0.2-0.1,0.4-0.3,0.5-0.4c-1,0.8-1.3,1-0.8,0.6
			c0.3-0.2,0.7-0.5,1-0.7c1.3-0.9,2.7-1.6,4.2-2.2c-0.6,0.3-1.2,0.5-1.8,0.8c2.4-1,4.9-1.6,7.4-2c-0.7,0.1-1.3,0.2-2,0.3
			c2.7-0.3,5.4-0.3,8,0c-0.7-0.1-1.3-0.2-2-0.3c2.8,0.4,5.5,1.1,8.1,2.2c-0.6-0.3-1.2-0.5-1.8-0.8c1.8,0.8,3.5,1.7,5.1,2.8
			c0.5,0.4,1.7,1.6,0-0.1c0.4,0.3,0.8,0.6,1.1,1c0.7,0.6,1.4,1.3,2,1.9c0.3,0.3,0.6,0.6,0.9,1c0.4,0.5,1.4,1.9,0-0.1
			c0.6,0.8,1.1,1.6,1.7,2.4c1,1.7,1.9,3.4,2.7,5.2c-0.3-0.6-0.5-1.2-0.8-1.8c1.6,3.8,2.6,7.8,3.2,11.9c-0.1-0.7-0.2-1.3-0.3-2
			c0.8,6.1,0.6,12.2-0.2,18.3c0.1-0.7,0.2-1.3,0.3-2c-2.4,18.1-9.7,36.1-6.3,54.5c1.5,8.4,6.1,16.3,13.4,20.9
			c7.9,4.9,18.3,5.2,27.1,2.5c10.3-3.3,18.6-10.3,26.6-17.3c3-2.6,2.8-8,0-10.6c-3.2-2.9-7.4-2.8-10.6,0c-1.5,1.3-3.1,2.7-4.6,4
			c-0.8,0.7-1.6,1.3-2.4,1.9c-0.4,0.3-2.1,1.4-0.2,0.2c-0.4,0.3-0.8,0.6-1.2,0.9c-3.3,2.4-6.8,4.6-10.6,6.2c0.6-0.3,1.2-0.5,1.8-0.8
			c-2.7,1.1-5.5,1.9-8.4,2.3c0.7-0.1,1.3-0.2,2-0.3c-2.5,0.3-4.9,0.3-7.4,0c0.7,0.1,1.3,0.2,2,0.3c-1.9-0.3-3.7-0.8-5.5-1.5
			c0.6,0.3,1.2,0.5,1.8,0.8c-1.3-0.6-2.5-1.2-3.7-2c-1-0.7,1.1,0.9,0.5,0.4c-0.2-0.2-0.5-0.4-0.7-0.6c-0.5-0.4-0.9-0.9-1.4-1.3
			c-0.2-0.2-0.4-0.4-0.6-0.6c-0.2-0.2-0.9-1.1-0.1,0c0.8,1.1,0.2,0.2,0-0.1c-0.2-0.3-0.4-0.6-0.6-0.9c-0.7-1.1-1.2-2.2-1.7-3.3
			c0.3,0.6,0.5,1.2,0.8,1.8c-1.1-2.7-1.8-5.6-2.2-8.5c0.1,0.7,0.2,1.3,0.3,2c-0.6-5-0.4-9.9,0.3-14.9c-0.1,0.7-0.2,1.3-0.3,2
			c1.5-10.7,4.5-21.1,6.1-31.8c1.5-10.1,1.9-20.1-0.6-30.1c-2.5-9.8-7.9-18.5-16.1-24.4c-8.2-5.8-18.7-7.4-28.4-5.8
			c-9.5,1.6-18.3,7.6-23,16.1c-2.4,4.3-3.9,9.2-3.7,14.2c0.2,5.6,2.3,10.7,6,14.9c6.2,7,16.8,9.7,25.8,8.8
			c10.5-0.9,20.4-5.1,29-11.1c8.7-6.1,16.1-13.6,23.2-21.4c3.5-3.8,7-7.7,10.5-11.5c1.7-1.8,3.4-3.5,5.2-5.1
			c0.8-0.8,1.7-1.5,2.5-2.2c0.2-0.2,0.4-0.4,0.7-0.5c1.2-0.9-1.2,0.9-0.4,0.3c0.5-0.4,1-0.7,1.5-1.1c1.9-1.3,3.9-2.5,6.1-3.4
			c-0.6,0.3-1.2,0.5-1.8,0.8c2-0.8,4-1.4,6.1-1.7c-0.7,0.1-1.3,0.2-2,0.3c1.7-0.2,3.4-0.2,5.1,0c-0.7-0.1-1.3-0.2-2-0.3
			c1.5,0.2,3,0.6,4.4,1.2c-0.6-0.3-1.2-0.5-1.8-0.8c1.1,0.5,2.2,1.1,3.3,1.8c0.3,0.2,0.5,0.4,0.8,0.6c-1.9-1.3-0.9-0.7-0.5-0.3
			c0.5,0.4,0.9,0.8,1.4,1.3c0.4,0.4,0.8,1,1.2,1.4c-0.4-0.3-1.1-1.5-0.3-0.4c0.2,0.2,0.3,0.5,0.5,0.7c0.7,1.1,1.3,2.3,1.9,3.5
			c-0.3-0.6-0.5-1.2-0.8-1.8c0.8,1.8,1.3,3.7,1.6,5.7c-0.1-0.7-0.2-1.3-0.3-2c0.2,1.9,0.2,3.7,0,5.6c0.1-0.7,0.2-1.3,0.3-2
			c-0.3,2.2-0.9,4.3-1.7,6.3c0.3-0.6,0.5-1.2,0.8-1.8c-0.8,1.8-1.7,3.5-2.8,5.1c-0.3,0.5-1.5,1.8,0.1,0c-0.2,0.3-0.5,0.6-0.7,0.9
			c-0.6,0.8-1.3,1.5-2,2.2c-0.7,0.7-1.5,1.3-2.2,2c-1.1,0.9,1.5-1.1,0.3-0.3c-0.4,0.3-0.8,0.6-1.2,0.8c-1.7,1.1-3.5,2.1-5.4,2.9
			c0.6-0.3,1.2-0.5,1.8-0.8c-3.2,1.3-6.6,2.2-10,2.7c0.7-0.1,1.3-0.2,2-0.3c-4.5,0.6-9,0.5-13.5-0.1c0.7,0.1,1.3,0.2,2,0.3
			c-1.4-0.2-2.9-0.4-4.3-0.7c-3.8-0.8-8.3,1.1-9.2,5.2C-796.5-133-794.5-128.3-790.4-127.5L-790.4-127.5z"/>
	</g>
</g>
<rect x="-970.1" y="73.8" style="fill:none;" width="161.4" height="67.7"/>
<text transform="matrix(1 0 0 1 -970.0604 82.5346)" style="font-family:'Gotham-Black'; font-size:12px;">LINGO</text>
<rect x="-1136.2" y="-173.3" style="fill:none;" width="161.4" height="58.7"/>
<text transform="matrix(1 0 0 1 -1136.2236 -151.4253)"><tspan x="0" y="0" style="font-family:'Gotham-Black'; font-size:30px;">LOVE</tspan><tspan x="0" y="36" style="font-family:'Gotham-Black'; font-size:30px;">LINGO</tspan></text>
<rect x="-725.1" y="-388" style="fill:none;" width="161.4" height="58.7"/>
<text transform="matrix(1 0 0 1 -725.1093 -366.1473)"><tspan x="0" y="0" style="font-family:'Gotham-Black'; font-size:30px;">L</tspan><tspan x="18.5" y="0" style="stroke:#000000;stroke-miterlimit:10; font-family:'Gotham-Black'; font-size:30px;">O</tspan><tspan x="43.4" y="0" style="font-family:'Gotham-Black'; font-size:30px;">VE</tspan><tspan x="0" y="36" style="font-family:'Gotham-Black'; font-size:30px;">L</tspan><tspan x="18.5" y="36" style="stroke:#000000;stroke-miterlimit:10; font-family:'Gotham-Black'; font-size:30px;">I</tspan><tspan x="28.3" y="36" style="font-family:'Gotham-Black'; font-size:30px;">NGO</tspan></text>
<path class="st4" d="M-474.9-427.5v-0.1c0-10.1,8.1-18.2,18.9-18.2s18.8,8.1,18.8,18.1v0.1c0,10.1-8.1,18.2-18.9,18.2
	S-474.9-417.4-474.9-427.5z M-447.1-427.5v-0.1c0-5.1-3.6-9.5-9-9.5c-5.3,0-8.9,4.3-8.9,9.4v0.1c0,5.1,3.7,9.5,9,9.5
	C-450.6-418.1-447.1-422.4-447.1-427.5z"/>
<path class="st5" d="M-709.4,30.1h6.8c0.8,0,1.4,0.6,1.4,1.4v25.1h15.5c0.8,0,1.4,0.6,1.4,1.4v5.6c0,0.8-0.6,1.4-1.4,1.4h-23.8
	c-0.8,0-1.4-0.6-1.4-1.4V31.6C-710.8,30.8-710.1,30.1-709.4,30.1z"/>
<path class="st5" d="M-643.4,30.1h7.8c0.6,0,1.1,0.4,1.3,0.9l7.6,21.2l7.6-21.2c0.2-0.6,0.7-0.9,1.3-0.9h7.6c1,0,1.7,1,1.3,1.9
	l-13.1,32.4c-0.2,0.5-0.7,0.9-1.3,0.9h-7.1c-0.6,0-1.1-0.4-1.3-0.9l-13.1-32.4C-645.1,31.1-644.4,30.1-643.4,30.1z"/>
<path class="st5" d="M-603.3,30.1h25.3c0.8,0,1.4,0.6,1.4,1.4V37c0,0.8-0.6,1.4-1.4,1.4h-17.1v5.3h15.4c0.8,0,1.4,0.6,1.4,1.4v4.8
	c0,0.8-0.6,1.4-1.4,1.4h-15.4v5.6h17.4c0.8,0,1.4,0.6,1.4,1.4v5.4c0,0.8-0.6,1.4-1.4,1.4h-25.6c-0.8,0-1.4-0.6-1.4-1.4V31.5
	C-604.7,30.8-604.1,30.1-603.3,30.1z"/>
<path class="st5" d="M-709.4,90.1h6.9c0.8,0,1.4,0.6,1.4,1.4v25.1h15.5c0.8,0,1.4,0.6,1.4,1.4v5.7c0,0.8-0.6,1.4-1.4,1.4h-23.8
	c-0.8,0-1.4-0.6-1.4-1.4V91.5C-710.8,90.8-710.2,90.1-709.4,90.1z"/>
<path class="st5" d="M-678.4,90.1h6.9c0.8,0,1.4,0.6,1.4,1.4v32.2c0,0.8-0.6,1.4-1.4,1.4h-6.9c-0.8,0-1.4-0.6-1.4-1.4V91.5
	C-679.8,90.8-679.2,90.1-678.4,90.1z"/>
<path class="st5" d="M-662.2,90.1h6.9c0.4,0,0.9,0.2,1.1,0.6l14,18V91.6c0-0.8,0.6-1.4,1.4-1.4h6.7c0.8,0,1.4,0.6,1.4,1.4v32.1
	c0,0.8-0.6,1.4-1.4,1.4h-6.4c-0.4,0-0.9-0.2-1.1-0.6l-14.5-18.7v17.8c0,0.8-0.6,1.4-1.4,1.4h-6.7c-0.8,0-1.4-0.6-1.4-1.4V91.6
	C-663.6,90.8-663,90.1-662.2,90.1z"/>
<path class="st5" d="M-625.6,107.7v-0.1c0-10.2,8-18.2,18.9-18.2c5.5,0,9.6,1.5,13.1,4.2c0.6,0.5,0.7,1.4,0.2,2l-3.9,4.7
	c-0.5,0.6-1.3,0.7-1.9,0.2c-2.2-1.6-4.4-2.5-7.4-2.5c-5,0-9,4.3-9,9.6v0.1c0,5.7,4,9.7,9.5,9.7c2.4,0,4.2-0.5,5.6-1.5v-4.2h-5.5
	c-0.8,0-1.4-0.6-1.4-1.4v-4.3c0-0.8,0.6-1.4,1.4-1.4h13.3c0.8,0,1.4,0.6,1.4,1.4v13.7c0,0.4-0.2,0.8-0.5,1.1c-3.7,2.8-8.6,5-14.7,5
	C-617.4,125.8-625.6,118.3-625.6,107.7z"/>
<path class="st5" d="M-587.1,107.7v-0.1c0-10.1,8.1-18.2,18.9-18.2s18.8,8.1,18.8,18.1v0.1c0,10.1-8.1,18.2-18.9,18.2
	S-587.1,117.8-587.1,107.7z M-559.3,107.7v-0.1c0-5.1-3.7-9.5-9-9.5c-5.3,0-8.9,4.3-8.9,9.4v0.1c0,5.1,3.7,9.5,9,9.5
	C-562.9,117.1-559.3,112.8-559.3,107.7z"/>
<path class="st2" d="M-650,46L-650,46l-16.2,19c-0.6,0.7-1.6,0.7-2.2,0l-16.2-19l0,0c-1.8-2-2.9-4.8-2.5-7.8
	c0.5-4.6,4.3-8.4,8.9-8.8c4.1-0.4,7.8,1.8,9.6,5.1c0.5,1,1.9,1,2.5,0c1.8-3.3,5.5-5.5,9.6-5.1c4.6,0.4,8.4,4.2,8.9,8.8
	C-647.2,41.3-648.2,44-650,46z"/>
<g>
	<path class="st5" d="M-256.8-491.1h9.7v26.5h17v8.5h-26.7V-491.1z"/>
	<path class="st5" d="M-191.5-491.1h10.9l8,22.2l8-22.2h10.7l-14.2,35.3h-9L-191.5-491.1z"/>
	<path class="st5" d="M-150.7-491.1h28.2v8.3h-18.6v5.3h16.8v7.7h-16.8v5.6h18.8v8.3h-28.4V-491.1z"/>
	<path class="st5" d="M-256.8-431.1h9.7v26.5h17v8.5h-26.7V-431.1z"/>
	<path class="st5" d="M-225.8-431.1h9.8v35h-9.8V-431.1z"/>
	<path class="st5" d="M-209.7-431.1h9.1l14.4,18.5v-18.5h9.6v35h-8.5l-15-19.2v19.2h-9.6V-431.1z"/>
	<path class="st5" d="M-171.6-413.5v-0.1c0-10.2,8-18.2,18.9-18.2c6.2,0,10.5,1.9,14.2,5.1l-5.7,6.9c-2.5-2.1-5-3.3-8.5-3.3
		c-5,0-9,4.3-9,9.6v0.1c0,5.7,4,9.7,9.5,9.7c2.4,0,4.2-0.5,5.6-1.5v-4.2h-6.9v-7.1h16.1v15.8c-3.7,3.1-8.9,5.4-15.2,5.4
		C-163.5-395.4-171.6-402.9-171.6-413.5z"/>
</g>
<path class="st5" d="M-133.2-413.5v-0.1c0-10.1,8.1-18.2,18.9-18.2s18.8,8.1,18.8,18.1v0.1c0,10.1-8.1,18.2-18.9,18.2
	S-133.2-403.4-133.2-413.5z M-105.4-413.5v-0.1c0-5.1-3.7-9.5-9-9.5c-5.3,0-8.9,4.3-8.9,9.4v0.1c0,5.1,3.7,9.5,9,9.5
	C-108.9-404.1-105.4-408.4-105.4-413.5z"/>
<path class="st2" d="M-196.1-475.1L-196.1-475.1l-16.5,19.4c-0.4,0.4-1.1,0.4-1.4,0l-16.5-19.4l0,0c-1.6-1.7-2.6-4.1-2.6-6.6
	c-0.1-5.4,4.3-10,9.8-10c5.5-0.1,10.1,4.4,10.1,9.9c0-5.5,4.5-10,10.1-9.9c5.4,0.1,9.8,4.6,9.8,10
	C-193.5-479.2-194.5-476.9-196.1-475.1z"/>
<g>
	<path class="st5" d="M-1136.2-503.2h9.7v26.5h17v8.5h-26.7V-503.2z"/>
	<path class="st5" d="M-1070.9-503.2h10.9l8,22.2l8-22.2h10.7l-14.2,35.3h-9L-1070.9-503.2z"/>
	<path class="st5" d="M-1030.1-503.2h28.2v8.3h-18.6v5.3h16.8v7.7h-16.8v5.6h18.8v8.3h-28.4V-503.2z"/>
	<path class="st5" d="M-1136.2-443.2h9.7v26.5h17v8.5h-26.7V-443.2z"/>
	<path class="st5" d="M-1105.2-443.2h9.8v35h-9.8V-443.2z"/>
	<path class="st5" d="M-1089.1-443.2h9.1l14.4,18.5v-18.5h9.6v35h-8.5l-15-19.2v19.2h-9.6V-443.2z"/>
	<path class="st5" d="M-1051-425.6v-0.1c0-10.2,8-18.2,18.9-18.2c6.2,0,10.5,1.9,14.2,5.1l-5.7,6.9c-2.5-2.1-5-3.3-8.5-3.3
		c-5,0-9,4.3-9,9.6v0.1c0,5.7,4,9.7,9.5,9.7c2.4,0,4.2-0.5,5.6-1.5v-4.2h-6.9v-7.1h16.1v15.8c-3.7,3.1-8.9,5.4-15.2,5.4
		C-1042.9-407.5-1051-415-1051-425.6z"/>
</g>
<path class="st5" d="M-1012.6-425.6v-0.1c0-10.1,8.1-18.2,18.9-18.2s18.8,8.1,18.8,18.1v0.1c0,10.1-8.1,18.2-18.9,18.2
	S-1012.6-415.6-1012.6-425.6z M-984.8-425.6v-0.1c0-5.1-3.7-9.5-9-9.5c-5.3,0-8.9,4.3-8.9,9.4v0.1c0,5.1,3.7,9.5,9,9.5
	C-988.3-416.3-984.8-420.6-984.8-425.6z"/>
<g>
	<path class="st5" d="M-181.1,0.7h6.8c0.8,0,1.4,0.6,1.4,1.4v25.1h15.5c0.8,0,1.4,0.6,1.4,1.4v5.6c0,0.8-0.6,1.4-1.4,1.4h-23.8
		c-0.8,0-1.4-0.6-1.4-1.4V2.1C-182.5,1.3-181.9,0.7-181.1,0.7z"/>
	<path class="st5" d="M-115.1,0.7h7.8c0.6,0,1.1,0.4,1.3,0.9l7.6,21.2l7.6-21.2c0.2-0.6,0.7-0.9,1.3-0.9h7.6c1,0,1.7,1,1.3,1.9
		l-13.1,32.4c-0.2,0.5-0.7,0.9-1.3,0.9h-7.1c-0.6,0-1.1-0.4-1.3-0.9l-13.1-32.4C-116.8,1.7-116.2,0.7-115.1,0.7z"/>
	<path class="st5" d="M-75,0.7h25.3c0.8,0,1.4,0.6,1.4,1.4v5.4c0,0.8-0.6,1.4-1.4,1.4h-17.1v5.3h15.4c0.8,0,1.4,0.6,1.4,1.4v4.8
		c0,0.8-0.6,1.4-1.4,1.4h-15.4v5.6h17.4c0.8,0,1.4,0.6,1.4,1.4v5.4c0,0.8-0.6,1.4-1.4,1.4H-75c-0.8,0-1.4-0.6-1.4-1.4V2.1
		C-76.4,1.3-75.8,0.7-75,0.7z"/>
	<path class="st5" d="M-181.1,60.7h6.9c0.8,0,1.4,0.6,1.4,1.4v25.1h15.5c0.8,0,1.4,0.6,1.4,1.4v5.7c0,0.8-0.6,1.4-1.4,1.4h-23.8
		c-0.8,0-1.4-0.6-1.4-1.4V62.1C-182.5,61.3-181.9,60.7-181.1,60.7z"/>
	<path class="st5" d="M-150.1,60.7h6.9c0.8,0,1.4,0.6,1.4,1.4v32.2c0,0.8-0.6,1.4-1.4,1.4h-6.9c-0.8,0-1.4-0.6-1.4-1.4V62.1
		C-151.5,61.3-150.9,60.7-150.1,60.7z"/>
	<path class="st5" d="M-134,60.7h6.9c0.4,0,0.9,0.2,1.1,0.6l14,18V62.1c0-0.8,0.6-1.4,1.4-1.4h6.7c0.8,0,1.4,0.6,1.4,1.4v32.1
		c0,0.8-0.6,1.4-1.4,1.4h-6.4c-0.4,0-0.9-0.2-1.1-0.6l-14.5-18.7v17.8c0,0.8-0.6,1.4-1.4,1.4h-6.7c-0.8,0-1.4-0.6-1.4-1.4V62.1
		C-135.4,61.3-134.8,60.7-134,60.7z"/>
	<path class="st5" d="M-97.3,78.3v-0.1c0-10.2,8-18.2,18.9-18.2c5.5,0,9.6,1.5,13.1,4.2c0.6,0.5,0.7,1.4,0.2,2l-3.9,4.7
		c-0.5,0.6-1.3,0.7-1.9,0.2c-2.2-1.6-4.4-2.5-7.4-2.5c-5,0-9,4.3-9,9.6v0.1c0,5.7,4,9.7,9.5,9.7c2.4,0,4.2-0.5,5.6-1.5v-4.2h-5.5
		c-0.8,0-1.4-0.6-1.4-1.4v-4.3c0-0.8,0.6-1.4,1.4-1.4h13.3c0.8,0,1.4,0.6,1.4,1.4v13.7c0,0.4-0.2,0.8-0.5,1.1c-3.7,2.8-8.6,5-14.7,5
		C-89.2,96.4-97.3,88.9-97.3,78.3z"/>
	<path class="st5" d="M-58.9,78.3v-0.1C-58.9,68.1-50.8,60-40,60s18.8,8.1,18.8,18.1v0.1c0,10.1-8.1,18.2-18.9,18.2
		S-58.9,88.4-58.9,78.3z M-31.1,78.3v-0.1c0-5.1-3.7-9.5-9-9.5c-5.3,0-8.9,4.3-8.9,9.4v0.1c0,5.1,3.7,9.5,9,9.5
		C-34.6,87.7-31.1,83.4-31.1,78.3z"/>
	<path class="st2" d="M-121.8,16.6L-121.8,16.6l-16.5,19.4c-0.4,0.4-1.1,0.4-1.4,0l-16.5-19.4l0,0c-1.6-1.7-2.6-4.1-2.6-6.6
		c-0.1-5.4,4.3-10,9.8-10c5.5-0.1,10.1,4.4,10.1,9.9c0-5.5,4.5-10,10.1-9.9c5.4,0.1,9.8,4.6,9.8,10
		C-119.2,12.6-120.2,14.9-121.8,16.6z"/>
</g>
<g>
	<path class="st5" d="M1.4,0.7h6.8c0.8,0,1.4,0.6,1.4,1.4v25.1h15.5c0.8,0,1.4,0.6,1.4,1.4v5.6c0,0.8-0.6,1.4-1.4,1.4H1.4
		c-0.8,0-1.4-0.6-1.4-1.4V2.1C0,1.3,0.6,0.7,1.4,0.7z"/>
	<path class="st5" d="M67.4,0.7h7.8c0.6,0,1.1,0.4,1.3,0.9l7.6,21.2l7.6-21.2c0.2-0.6,0.7-0.9,1.3-0.9h7.6c1,0,1.7,1,1.3,1.9
		L88.9,35.1c-0.2,0.5-0.7,0.9-1.3,0.9h-7.1c-0.6,0-1.1-0.4-1.3-0.9L66.1,2.6C65.7,1.7,66.4,0.7,67.4,0.7z"/>
	<path class="st5" d="M107.5,0.7h25.3c0.8,0,1.4,0.6,1.4,1.4v5.4c0,0.8-0.6,1.4-1.4,1.4h-17.1v5.3h15.4c0.8,0,1.4,0.6,1.4,1.4v4.8
		c0,0.8-0.6,1.4-1.4,1.4h-15.4v5.6h17.4c0.8,0,1.4,0.6,1.4,1.4v5.4c0,0.8-0.6,1.4-1.4,1.4h-25.6c-0.8,0-1.4-0.6-1.4-1.4V2.1
		C106.1,1.3,106.7,0.7,107.5,0.7z"/>
	<path class="st5" d="M1.4,40.7h6.9c0.8,0,1.4,0.6,1.4,1.4v25.1h15.5c0.8,0,1.4,0.6,1.4,1.4v5.7c0,0.8-0.6,1.4-1.4,1.4H1.4
		c-0.8,0-1.4-0.6-1.4-1.4V42.1C0,41.3,0.6,40.7,1.4,40.7z"/>
	<path class="st5" d="M32.4,40.7h6.9c0.8,0,1.4,0.6,1.4,1.4v32.2c0,0.8-0.6,1.4-1.4,1.4h-6.9c-0.8,0-1.4-0.6-1.4-1.4V42.1
		C31,41.3,31.6,40.7,32.4,40.7z"/>
	<path class="st5" d="M48.6,40.7h6.9c0.4,0,0.9,0.2,1.1,0.6l14,18V42.1c0-0.8,0.6-1.4,1.4-1.4h6.7c0.8,0,1.4,0.6,1.4,1.4v32.1
		c0,0.8-0.6,1.4-1.4,1.4h-6.4c-0.4,0-0.9-0.2-1.1-0.6L56.8,56.5v17.8c0,0.8-0.6,1.4-1.4,1.4h-6.7c-0.8,0-1.4-0.6-1.4-1.4V42.1
		C47.1,41.3,47.8,40.7,48.6,40.7z"/>
	<path class="st5" d="M85.2,58.3v-0.1C85.2,48,93.2,40,104,40c5.5,0,9.6,1.5,13.1,4.2c0.6,0.5,0.7,1.4,0.2,2l-3.9,4.7
		c-0.5,0.6-1.3,0.7-1.9,0.2c-2.2-1.6-4.4-2.5-7.4-2.5c-5,0-9,4.3-9,9.6v0.1c0,5.7,4,9.7,9.5,9.7c2.4,0,4.2-0.5,5.6-1.5v-4.2h-5.5
		c-0.8,0-1.4-0.6-1.4-1.4v-4.3c0-0.8,0.6-1.4,1.4-1.4H118c0.8,0,1.4,0.6,1.4,1.4v13.7c0,0.4-0.2,0.8-0.5,1.1c-3.7,2.8-8.6,5-14.7,5
		C93.3,76.4,85.2,68.9,85.2,58.3z"/>
	<path class="st5" d="M123.6,58.3v-0.1c0-10.1,8.1-18.2,18.9-18.2s18.8,8.1,18.8,18.1v0.1c0,10.1-8.1,18.2-18.9,18.2
		S123.6,68.4,123.6,58.3z M151.5,58.3v-0.1c0-5.1-3.7-9.5-9-9.5c-5.3,0-8.9,4.3-8.9,9.4v0.1c0,5.1,3.7,9.5,9,9.5
		C147.9,67.7,151.5,63.4,151.5,58.3z"/>
	<path class="st2" d="M60.7,16.6L60.7,16.6L44.2,36.1c-0.4,0.4-1.1,0.4-1.4,0L26.2,16.6l0,0c-1.6-1.7-2.6-4.1-2.6-6.6
		c-0.1-5.4,4.3-10,9.8-10C39-0.1,43.5,4.4,43.5,9.9c0-5.5,4.5-10,10.1-9.9c5.4,0.1,9.8,4.6,9.8,10C63.3,12.6,62.3,14.9,60.7,16.6z"
		/>
</g>
</svg>
